<?xml version="1.0" encoding="UTF-8" standalone="no"?>
<!DOCTYPE svg PUBLIC "-//W3C//DTD SVG 1.1//EN" "http://www.w3.org/Graphics/SVG/1.1/DTD/svg11.dtd">
<!-- Created with Vectornator (http://vectornator.io/) -->
<svg height="100%" stroke-miterlimit="10" style="fill-rule:nonzero;clip-rule:evenodd;stroke-linecap:round;stroke-linejoin:round;" version="1.1" viewBox="86.486 403.977 125.798 144.582" width="100%" xml:space="preserve" xmlns="http://www.w3.org/2000/svg" xmlns:vectornator="http://vectornator.io" xmlns:xlink="http://www.w3.org/1999/xlink">
<defs/>
<clipPath id="ArtboardFrame">
<rect height="144.582" width="125.798" x="86.486" y="403.977"/>
</clipPath>
<g clip-path="url(#ArtboardFrame)" id="Layer" vectornator:layerName="Layer">
<g opacity="1" vectornator:layerName="Group 1">
<path d="M136.535 492.932L131.535 496.932L137.169 508.725L149.535 515.932L149.535 494.932L144.535 494.932L136.535 492.932Z" fill="#ffffff" fill-rule="nonzero" opacity="1" stroke="#ffffff" stroke-linecap="butt" stroke-linejoin="round" stroke-width="0.976286" vectornator:layerName="Curve 9"/>
<path d="M98.8815 404.562L98.9743 426.465C98.9792 426.587 86.9249 431.577 86.9743 431.465L89.4977 425.685L98.7836 404.544C98.8328 404.432 98.8766 404.44 98.8815 404.562Z" fill="#ffffff" fill-rule="nonzero" opacity="1" stroke="#ffffff" stroke-linecap="butt" stroke-linejoin="round" stroke-width="0.976286" vectornator:layerName="Curve 10"/>
<path d="M100.974 429.465L121.285 434.874C121.285 434.874 109.524 448.999 108.796 449.793C108.796 449.793 88.9249 434.577 88.9743 434.465C88.9743 434.465 100.867 429.407 100.974 429.465Z" fill="#ffffff" fill-rule="nonzero" opacity="1" stroke="#ffffff" stroke-linecap="butt" stroke-linejoin="round" stroke-width="0.976286" vectornator:layerName="Curve 11"/>
<path d="M98.8815 404.562L98.9743 426.465C98.9792 426.587 86.9249 431.577 86.9743 431.465L89.4977 425.685L98.7836 404.544C98.8328 404.432 98.8766 404.44 98.8815 404.562Z" fill="#ffffff" fill-rule="nonzero" opacity="1" stroke="#ffffff" stroke-linecap="butt" stroke-linejoin="round" stroke-width="0.976286" vectornator:layerName="Curve 12"/>
<path d="M100.974 429.465L121.285 434.874C121.285 434.874 109.524 448.999 108.796 449.793C108.796 449.793 88.9249 434.577 88.9743 434.465C88.9743 434.465 100.867 429.407 100.974 429.465Z" fill="#ffffff" fill-rule="nonzero" opacity="1" stroke="#ffffff" stroke-linecap="butt" stroke-linejoin="round" stroke-width="0.976286" vectornator:layerName="Curve 13"/>
<path d="M130.082 518.726L133.777 531.444L137.014 526.607L149.527 548.071L149.527 519.786L136.092 512.715L130.082 518.726Z" fill="#ffffff" fill-rule="nonzero" opacity="1" stroke="#ffffff" stroke-linecap="butt" stroke-linejoin="round" stroke-width="0.976286" vectornator:layerName="Curve 14"/>
<path d="M124.629 436.369C124.096 436.973 111.286 452.369 111.285 452.369L114.344 486.977L118.418 499.329L128.314 516.251L133.971 510.594L127.535 495.932L134.535 489.932L127.535 459.932L138.269 449.323L124.629 436.369Z" fill="#ffffff" fill-rule="nonzero" opacity="1" stroke="#ffffff" stroke-linecap="butt" stroke-linejoin="round" stroke-width="0.976286" vectornator:layerName="Curve 15"/>
<path d="M199.888 404.625L199.796 426.528C199.791 426.65 211.845 431.64 211.796 431.528L209.272 425.748L199.986 404.607C199.937 404.495 199.893 404.503 199.888 404.625Z" fill="#ffffff" fill-rule="nonzero" opacity="1" stroke="#ffffff" stroke-linecap="butt" stroke-linejoin="round" stroke-width="0.976286" vectornator:layerName="Curve 16"/>
<path d="M197.796 429.528L177.485 434.937C177.485 434.937 189.246 449.062 189.974 449.856C189.974 449.856 209.845 434.64 209.796 434.528C209.796 434.528 197.903 429.47 197.796 429.528Z" fill="#ffffff" fill-rule="nonzero" opacity="1" stroke="#ffffff" stroke-linecap="butt" stroke-linejoin="round" stroke-width="0.976286" vectornator:layerName="Curve 17"/>
<path d="M168.688 518.788L164.993 531.507L161.756 526.67L149.527 548.071L149.527 519.786L162.678 512.778L168.688 518.788Z" fill="#ffffff" fill-rule="nonzero" opacity="1" stroke="#ffffff" stroke-linecap="butt" stroke-linejoin="round" stroke-width="0.976286" vectornator:layerName="Curve 18"/>
<path d="M174.141 436.432C174.674 437.036 187.484 452.432 187.484 452.432L184.426 487.04L180.352 499.391L170.456 516.313L164.799 510.657L171.234 495.995L164.234 489.995L171.234 459.995L160.501 449.386L174.141 436.432Z" fill="#ffffff" fill-rule="nonzero" opacity="1" stroke="#ffffff" stroke-linecap="butt" stroke-linejoin="round" stroke-width="0.976286" vectornator:layerName="Curve 19"/>
<path d="M139.223 426.713C139.216 426.714 139.197 426.709 139.192 426.713L127.446 434.119C127.446 434.119 141.588 447.519 141.589 447.519C141.589 447.519 149.466 449.959 149.535 449.932L149.535 423.932L139.223 426.713Z" fill="#ffffff" fill-rule="nonzero" opacity="1" stroke="#ffffff" stroke-linecap="butt" stroke-linejoin="round" stroke-width="0.976286" vectornator:layerName="Curve 20"/>
<path d="M114.739 454.604L124.535 458.932L116.535 458.932L114.739 454.604Z" fill="#000000" fill-rule="nonzero" opacity="1" stroke="none" vectornator:layerName="Curve 21"/>
<path d="M162.535 492.932L167.535 496.932L161.902 508.725L149.535 515.932L149.535 494.932L154.535 494.932L162.535 492.932Z" fill="#ffffff" fill-rule="nonzero" opacity="1" stroke="#ffffff" stroke-linecap="butt" stroke-linejoin="round" stroke-width="0.976286" vectornator:layerName="Curve 22"/>
<path d="M159.848 426.713C159.855 426.714 159.874 426.709 159.879 426.713L171.625 434.119C171.625 434.119 157.483 447.519 157.482 447.519C157.482 447.519 149.605 449.959 149.535 449.932L149.535 423.932L159.848 426.713Z" fill="#ffffff" fill-rule="nonzero" opacity="1" stroke="#ffffff" stroke-linecap="butt" stroke-linejoin="round" stroke-width="0.976286" vectornator:layerName="Curve 23"/>
<path d="M184.332 454.604L174.535 458.932L182.535 458.932L184.332 454.604Z" fill="#000000" fill-rule="nonzero" opacity="1" stroke="none" vectornator:layerName="Curve 24"/>
</g>
</g>
</svg>
