<?xml version="1.0" encoding="UTF-8" standalone="no"?>
<!DOCTYPE svg PUBLIC "-//W3C//DTD SVG 1.1//EN" "http://www.w3.org/Graphics/SVG/1.1/DTD/svg11.dtd">
<!-- Created with Vectornator (http://vectornator.io/) -->
<svg height="100%" stroke-miterlimit="10" style="fill-rule:nonzero;clip-rule:evenodd;stroke-linecap:round;stroke-linejoin:round;" version="1.1" viewBox="86.5117 239.512 125.976 144.582" width="100%" xml:space="preserve" xmlns="http://www.w3.org/2000/svg" xmlns:vectornator="http://vectornator.io" xmlns:xlink="http://www.w3.org/1999/xlink">
<defs/>
<clipPath id="ArtboardFrame">
<rect height="144.582" width="125.976" x="86.5117" y="239.512"/>
</clipPath>
<g clip-path="url(#ArtboardFrame)" id="Layer" vectornator:layerName="Layer">
<g opacity="1" vectornator:layerName="Group 2">
<path d="M136.561 328.467L131.561 332.467L137.195 344.26L149.561 351.467L149.561 330.467L144.561 330.467L136.561 328.467Z" fill="#000000" fill-rule="nonzero" opacity="1" stroke="#000000" stroke-linecap="butt" stroke-linejoin="round" stroke-width="0.976286"/>
<path d="M98.9072 240.097L99 262C99.0049 262.122 86.9506 267.112 87 267L89.5234 261.22L98.8094 240.079C98.8585 239.967 98.9023 239.975 98.9072 240.097Z" fill="#000000" fill-rule="nonzero" opacity="1" stroke="#000000" stroke-linecap="butt" stroke-linejoin="round" stroke-width="0.976286" vectornator:layerName="Curve 1"/>
<path d="M101 265L121.31 270.409C121.31 270.409 109.55 284.534 108.821 285.328C108.821 285.328 88.9506 270.112 89 270C89 270 100.892 264.942 101 265Z" fill="#000000" fill-rule="nonzero" opacity="1" stroke="#000000" stroke-linecap="butt" stroke-linejoin="round" stroke-width="0.976286"/>
<path d="M98.9072 240.097L99 262C99.0049 262.122 86.9506 267.112 87 267L89.5234 261.22L98.8094 240.079C98.8585 239.967 98.9023 239.975 98.9072 240.097Z" fill="#000000" fill-rule="nonzero" opacity="1" stroke="#000000" stroke-linecap="butt" stroke-linejoin="round" stroke-width="0.976286" vectornator:layerName="Curve 2"/>
<path d="M101 265L121.31 270.409C121.31 270.409 109.55 284.534 108.821 285.328C108.821 285.328 88.9506 270.112 89 270C89 270 100.892 264.942 101 265Z" fill="#000000" fill-rule="nonzero" opacity="1" stroke="#000000" stroke-linecap="butt" stroke-linejoin="round" stroke-width="0.976286" vectornator:layerName="Curve 3"/>
<path d="M130.108 354.26L133.802 366.979L137.04 362.142L149.553 383.605L149.553 355.321L136.118 348.25L130.108 354.26Z" fill="#000000" fill-rule="nonzero" opacity="1" stroke="#000000" stroke-linecap="butt" stroke-linejoin="round" stroke-width="0.976286"/>
<path d="M124.655 271.904C124.121 272.508 111.311 287.904 111.311 287.904L114.369 322.512L118.444 334.864L128.34 351.786L133.997 346.129L127.561 331.467L134.561 325.467L127.561 295.467L138.295 284.858L124.655 271.904Z" fill="#000000" fill-rule="nonzero" opacity="1" stroke="#000000" stroke-linecap="butt" stroke-linejoin="round" stroke-width="0.976286" vectornator:layerName="Curve 4"/>
<path d="M199.914 240.16L199.821 262.063C199.817 262.185 211.871 267.175 211.821 267.063L209.298 261.283L200.012 240.142C199.963 240.03 199.919 240.038 199.914 240.16Z" fill="#000000" fill-rule="nonzero" opacity="1" stroke="#000000" stroke-linecap="butt" stroke-linejoin="round" stroke-width="0.976286" vectornator:layerName="Curve 5"/>
<path d="M197.821 265.063L177.511 270.472C177.511 270.472 189.271 284.597 190 285.391C190 285.391 209.871 270.175 209.821 270.063C209.821 270.063 197.929 265.005 197.821 265.063Z" fill="#000000" fill-rule="nonzero" opacity="1" stroke="#000000" stroke-linecap="butt" stroke-linejoin="round" stroke-width="0.976286" vectornator:layerName="Curve 6"/>
<path d="M168.714 354.323L165.019 367.042L161.781 362.205L149.553 383.605L149.553 355.321L162.703 348.313L168.714 354.323Z" fill="#000000" fill-rule="nonzero" opacity="1" stroke="#000000" stroke-linecap="butt" stroke-linejoin="round" stroke-width="0.976286" vectornator:layerName="Curve 7"/>
<path d="M174.166 271.967C174.7 272.571 187.51 287.967 187.51 287.967L184.452 322.575L180.378 334.926L170.482 351.848L164.825 346.192L171.26 331.53L164.26 325.53L171.26 295.53L160.527 284.921L174.166 271.967Z" fill="#000000" fill-rule="nonzero" opacity="1" stroke="#000000" stroke-linecap="butt" stroke-linejoin="round" stroke-width="0.976286" vectornator:layerName="Curve 8"/>
<path d="M139.249 262.248C139.242 262.249 139.223 262.244 139.217 262.248L127.472 269.654C127.472 269.654 141.614 283.054 141.614 283.054C141.614 283.054 149.491 285.494 149.561 285.467L149.561 259.467L139.249 262.248Z" fill="#000000" fill-rule="nonzero" opacity="1" stroke="#000000" stroke-linecap="butt" stroke-linejoin="round" stroke-width="0.976286"/>
<path d="M114.765 290.138L124.561 294.467L116.561 294.467L114.765 290.138Z" fill="#ffffff" fill-rule="nonzero" opacity="1" stroke="none"/>
<path d="M162.561 328.467L167.561 332.467L161.927 344.26L149.561 351.467L149.561 330.467L154.561 330.467L162.561 328.467Z" fill="#000000" fill-rule="nonzero" opacity="1" stroke="#000000" stroke-linecap="butt" stroke-linejoin="round" stroke-width="0.976286"/>
<path d="M200.215 240.097L199.327 262.342C199.322 262.465 199.231 262.611 199.123 262.669L177.69 270.409C177.69 270.409 189.45 284.534 190.179 285.328L208.599 269.532L211.894 266.95C211.99 266.875 212.028 266.723 211.978 266.611L209.599 261.22L200.313 240.079C200.264 239.967 200.22 239.975 200.215 240.097Z" fill="#000000" fill-rule="nonzero" opacity="0" stroke="#000000" stroke-linecap="butt" stroke-linejoin="round" stroke-width="0.976286"/>
<path d="M159.874 262.248C159.88 262.249 159.899 262.244 159.905 262.248L171.651 269.654C171.651 269.654 157.508 283.054 157.508 283.054C157.508 283.054 149.631 285.494 149.561 285.467L149.561 259.467L159.874 262.248Z" fill="#000000" fill-rule="nonzero" opacity="1" stroke="#000000" stroke-linecap="butt" stroke-linejoin="round" stroke-width="0.976286"/>
<path d="M184.357 290.138L174.561 294.467L182.561 294.467L184.357 290.138Z" fill="#ffffff" fill-rule="nonzero" opacity="1" stroke="#ffffff" stroke-linecap="butt" stroke-linejoin="round" stroke-width="0.976286"/>
</g>
</g>
</svg>
